<svg width="215" height="76" viewBox="0 0 215 76" fill="none" xmlns="http://www.w3.org/2000/svg">
<rect width="100" height="76" rx="10" fill="#779BE7"/>
<path d="M46.72 20.608L49.984 28.48C49.824 28.608 49.648 28.72 49.456 28.816C49.264 28.912 49.088 29.024 48.928 29.152C47.616 26.976 46.32 25.376 45.04 24.352C44.112 23.616 43.136 23.088 42.112 22.768C41.12 22.448 40.08 22.288 38.992 22.288H34.384C33.904 22.288 33.408 22.32 32.896 22.384C32.416 22.416 32.032 22.48 31.744 22.576C30.976 22.928 30.592 23.728 30.592 24.976V35.776H37.648C39.216 35.776 40.288 35.44 40.864 34.768C41.6 33.936 41.968 32.416 41.968 30.208H43.36V43.6H41.968C41.968 41.104 41.6 39.44 40.864 38.608C40.256 37.904 39.184 37.552 37.648 37.552H30.592V49.408C30.592 50.72 30.832 51.536 31.312 51.856C31.824 52.272 33.168 52.48 35.344 52.48V54.064H23.488V52.528C25.216 52.528 26.336 52.32 26.848 51.904C27.296 51.52 27.52 50.704 27.52 49.456V24.976C27.52 24.08 27.328 23.44 26.944 23.056C26.368 22.48 25.216 22.192 23.488 22.192V20.608H46.72ZM77.0774 45.472C77.0774 48.416 76.0854 50.704 74.1014 52.336C72.2134 54.032 69.6534 54.88 66.4214 54.88C65.3334 54.88 64.1494 54.752 62.8694 54.496C61.5894 54.24 60.3894 53.872 59.2694 53.392C58.7254 53.552 58.1814 53.728 57.6374 53.92C57.1254 54.112 56.6454 54.336 56.1974 54.592C55.6214 53.056 55.0294 51.552 54.4214 50.08C53.8454 48.608 53.2694 47.104 52.6934 45.568C52.9174 45.44 53.1254 45.328 53.3174 45.232C53.5094 45.104 53.7174 44.992 53.9414 44.896C55.5094 47.424 57.0294 49.232 58.5014 50.32C58.9814 50.704 59.5414 51.056 60.1814 51.376C60.8534 51.696 61.5414 51.968 62.2454 52.192C62.9494 52.448 63.6534 52.64 64.3574 52.768C65.0614 52.896 65.7014 52.96 66.2774 52.96C67.4934 52.96 68.5814 52.8 69.5414 52.48C70.5014 52.16 71.3014 51.712 71.9414 51.136C73.2854 49.888 73.9574 48.24 73.9574 46.192C73.9574 45.424 73.7814 44.672 73.4294 43.936C73.0774 43.168 72.6134 42.544 72.0374 42.064C70.7574 41.04 68.2454 39.888 64.5014 38.608C61.5254 37.552 59.1734 36.32 57.4454 34.912C55.1414 33.152 53.9894 31.008 53.9894 28.48C53.9894 25.888 54.9174 23.808 56.7734 22.24C58.5654 20.672 60.9014 19.888 63.7814 19.888C65.1574 19.888 66.5014 20.08 67.8134 20.464C68.1654 20.592 68.5014 20.72 68.8214 20.848C69.1734 20.976 69.4934 21.104 69.7814 21.232L72.6614 20.272C73.2374 21.744 73.8134 23.2 74.3894 24.64C74.9654 26.08 75.5414 27.536 76.1174 29.008C75.7654 29.168 75.4134 29.344 75.0614 29.536C73.7174 27.232 72.1814 25.408 70.4534 24.064C68.3734 22.528 66.1334 21.76 63.7334 21.76C62.9014 21.76 62.1334 21.888 61.4294 22.144C60.7254 22.368 60.0854 22.672 59.5094 23.056C58.7094 23.6 58.0854 24.288 57.6374 25.12C57.1894 25.952 56.9654 26.928 56.9654 28.048C56.9654 29.872 57.9094 31.392 59.7974 32.608C60.7574 33.184 61.6854 33.68 62.5814 34.096C63.4774 34.48 64.6294 34.896 66.0374 35.344C67.9894 35.984 69.6374 36.64 70.9814 37.312C72.3254 37.984 73.3974 38.64 74.1974 39.28C76.1174 40.816 77.0774 42.88 77.0774 45.472Z" fill="white"/>
<path d="M125.48 27.072L127.656 32.32C127.549 32.4053 127.432 32.48 127.304 32.544C127.176 32.608 127.059 32.6827 126.952 32.768C126.077 31.3173 125.213 30.2507 124.36 29.568C123.741 29.0773 123.091 28.7253 122.408 28.512C121.747 28.2987 121.053 28.192 120.328 28.192H117.256C116.936 28.192 116.605 28.2133 116.264 28.256C115.944 28.2773 115.688 28.32 115.496 28.384C114.984 28.6187 114.728 29.152 114.728 29.984V37.184H119.432C120.477 37.184 121.192 36.96 121.576 36.512C122.067 35.9573 122.312 34.944 122.312 33.472H123.24V42.4H122.312C122.312 40.736 122.067 39.6267 121.576 39.072C121.171 38.6027 120.456 38.368 119.432 38.368H114.728V46.272C114.728 47.1467 114.888 47.6907 115.208 47.904C115.549 48.1813 116.445 48.32 117.896 48.32V49.376H109.992V48.352C111.144 48.352 111.891 48.2133 112.232 47.936C112.531 47.68 112.68 47.136 112.68 46.304V29.984C112.68 29.3867 112.552 28.96 112.296 28.704C111.912 28.32 111.144 28.128 109.992 28.128V27.072H125.48ZM134.198 28.224C134.198 28.736 134.028 29.1627 133.686 29.504C133.345 29.8453 132.918 30.016 132.406 30.016C131.937 30.016 131.542 29.8453 131.222 29.504C130.924 29.1627 130.774 28.736 130.774 28.224C130.774 27.712 130.934 27.2853 131.254 26.944C131.574 26.6027 131.958 26.432 132.406 26.432C132.918 26.432 133.345 26.6027 133.686 26.944C134.028 27.2853 134.198 27.712 134.198 28.224ZM135.702 49.408H129.718V48.352C130.593 48.352 131.158 48.224 131.414 47.968C131.628 47.776 131.734 47.424 131.734 46.912V37.696C131.734 37.2267 131.638 36.9067 131.446 36.736C131.212 36.544 130.646 36.448 129.75 36.448L129.622 35.744L133.686 34.208V46.912C133.686 47.5093 133.782 47.8827 133.974 48.032C134.252 48.2453 134.828 48.352 135.702 48.352V49.408ZM153.205 35.584C152.415 35.584 151.733 35.6907 151.157 35.904C151.05 35.9467 150.943 36 150.837 36.064C150.751 36.128 150.655 36.192 150.549 36.256C150.378 36.3627 150.207 36.5227 150.037 36.736L149.717 37.12C149.674 37.184 149.621 37.248 149.557 37.312C149.493 37.376 149.439 37.4507 149.397 37.536C148.863 38.176 148.33 38.816 147.797 39.456C147.263 40.0747 146.73 40.704 146.197 41.344C146.922 42.24 147.647 43.1147 148.373 43.968C149.098 44.8 149.823 45.664 150.549 46.56C150.655 46.7093 150.751 46.8587 150.837 47.008C150.943 47.136 151.05 47.2533 151.157 47.36C151.455 47.6587 151.743 47.872 152.021 48C152.447 48.2347 153.034 48.352 153.781 48.352V49.376H147.093V48.352C148.202 48.352 148.821 48.2667 148.949 48.096C149.013 48.032 149.045 47.9573 149.045 47.872C149.045 47.7653 148.991 47.6267 148.885 47.456L148.245 46.816C147.69 46.1547 147.146 45.504 146.613 44.864C146.079 44.224 145.546 43.5733 145.013 42.912C144.522 43.5093 144.031 44.1067 143.541 44.704C143.05 45.28 142.559 45.8667 142.069 46.464C141.962 46.592 141.866 46.7093 141.781 46.816C141.695 46.9227 141.61 47.04 141.525 47.168C141.269 47.4667 141.141 47.6907 141.141 47.84C141.141 47.904 141.162 47.9573 141.205 48C141.333 48.2347 141.898 48.352 142.901 48.352V49.376H136.821V48.352C137.695 48.352 138.346 48.2347 138.773 48C139.37 47.68 139.946 47.1787 140.501 46.496L144.341 42.016C143.637 41.1627 142.933 40.3307 142.229 39.52C141.546 38.688 140.853 37.856 140.149 37.024C139.701 36.448 139.359 36.0853 139.125 35.936C138.783 35.7227 138.186 35.616 137.333 35.616V34.56H143.797V35.616C143.263 35.616 142.858 35.6267 142.581 35.648C142.303 35.6693 142.122 35.744 142.037 35.872C141.973 35.9787 141.962 36.096 142.005 36.224C142.047 36.3307 142.111 36.448 142.197 36.576C142.282 36.6827 142.378 36.7893 142.485 36.896C142.613 37.0027 142.719 37.0987 142.805 37.184C143.253 37.7173 143.701 38.2613 144.149 38.816C144.618 39.3493 145.077 39.8827 145.525 40.416C145.973 39.904 146.41 39.3813 146.837 38.848C147.285 38.3147 147.733 37.7813 148.181 37.248C148.287 37.0987 148.394 36.96 148.501 36.832C148.629 36.704 148.746 36.576 148.853 36.448C148.959 36.3413 149.013 36.224 149.013 36.096C149.013 35.9893 148.981 35.904 148.917 35.84C148.831 35.6907 148.309 35.616 147.349 35.616V34.56H153.205V35.584ZM167.437 45.696C167.437 46.5707 167.192 47.3493 166.701 48.032C166.594 48.1387 166.488 48.2453 166.381 48.352C166.296 48.4587 166.2 48.5653 166.093 48.672C165.133 49.504 163.832 49.92 162.189 49.92C161.058 49.92 160.077 49.7387 159.245 49.376C159.138 49.3333 159.032 49.3013 158.925 49.28C158.84 49.28 158.744 49.28 158.637 49.28H158.317C158.082 49.3867 157.858 49.472 157.645 49.536C157.432 49.6213 157.208 49.7067 156.973 49.792C156.674 48.9813 156.365 48.192 156.045 47.424C155.725 46.6347 155.416 45.8347 155.117 45.024C155.202 44.96 155.277 44.896 155.341 44.832C155.426 44.768 155.522 44.7147 155.629 44.672C156.546 45.952 157.421 46.8907 158.253 47.488C159.576 48.3413 160.877 48.768 162.157 48.768C163.16 48.768 164.002 48.4587 164.685 47.84C165.24 47.2853 165.517 46.6133 165.517 45.824C165.517 45.312 165.314 44.8533 164.909 44.448C164.824 44.384 164.717 44.3093 164.589 44.224C164.461 44.1387 164.312 44.0427 164.141 43.936C163.864 43.7653 163.501 43.5947 163.053 43.424C162.605 43.232 162.061 43.0293 161.421 42.816C160.418 42.4747 159.586 42.1653 158.925 41.888C158.264 41.5893 157.762 41.3013 157.421 41.024C156.141 40.2347 155.501 39.1893 155.501 37.888C155.501 36.6933 156.066 35.744 157.197 35.04C158.05 34.5067 159.117 34.24 160.397 34.24C161.506 34.24 162.648 34.4533 163.821 34.88C163.992 34.8373 164.173 34.7627 164.365 34.656C164.557 34.528 164.77 34.3787 165.005 34.208C165.304 34.976 165.602 35.7547 165.901 36.544C166.2 37.312 166.498 38.0907 166.797 38.88C166.69 38.9227 166.584 38.976 166.477 39.04C166.392 39.104 166.296 39.1573 166.189 39.2C165.656 38.176 164.941 37.344 164.045 36.704C162.722 35.8293 161.506 35.392 160.397 35.392C159.586 35.392 158.946 35.5307 158.477 35.808C157.773 36.192 157.421 36.8533 157.421 37.792C157.421 38.3893 157.73 38.9013 158.349 39.328C158.434 39.3707 158.52 39.4133 158.605 39.456C158.69 39.4987 158.786 39.5413 158.893 39.584C159.192 39.7547 159.565 39.936 160.013 40.128C160.461 40.32 160.962 40.5013 161.517 40.672C162.669 41.0347 163.618 41.3973 164.365 41.76C165.133 42.1013 165.72 42.4213 166.125 42.72C167 43.424 167.437 44.416 167.437 45.696ZM182.709 45.536C182.815 45.6213 182.922 45.7067 183.029 45.792C183.157 45.8773 183.274 45.9627 183.381 46.048C182.869 46.816 182.303 47.456 181.685 47.968C181.066 48.48 180.405 48.9067 179.701 49.248C178.741 49.7173 177.706 49.952 176.597 49.952C174.485 49.952 172.757 49.28 171.413 47.936C169.983 46.5067 169.269 44.576 169.269 42.144C169.269 39.7973 169.951 37.9093 171.317 36.48C172.661 35.008 174.367 34.272 176.437 34.272C178.506 34.272 180.138 34.8693 181.333 36.064C182.613 37.28 183.253 39.04 183.253 41.344C181.269 41.408 179.317 41.4827 177.397 41.568C175.477 41.632 173.514 41.696 171.509 41.76C171.509 41.8453 171.498 41.9307 171.477 42.016C171.477 42.08 171.477 42.1547 171.477 42.24C171.477 43.136 171.594 43.9467 171.829 44.672C172.085 45.3973 172.447 46.048 172.917 46.624C173.898 47.904 175.274 48.544 177.045 48.544C177.983 48.544 178.965 48.2987 179.989 47.808C180.458 47.5307 180.917 47.2107 181.365 46.848C181.834 46.464 182.282 46.0267 182.709 45.536ZM171.573 40.544C173.173 40.5013 174.751 40.448 176.309 40.384C177.866 40.32 179.445 40.2667 181.045 40.224C181.023 38.816 180.586 37.6853 179.733 36.832C178.858 35.8933 177.759 35.424 176.437 35.424C175.157 35.424 174.037 35.936 173.077 36.96C172.181 37.8987 171.679 39.0933 171.573 40.544ZM196.924 35.712C196.924 36.8213 196.433 37.376 195.452 37.376C195.046 37.376 194.598 37.1947 194.108 36.832C193.745 36.5333 193.35 36.384 192.924 36.384C192.369 36.384 191.676 36.704 190.844 37.344C190.182 37.856 189.542 38.4427 188.924 39.104V46.848C188.924 47.4453 189.03 47.84 189.244 48.032C189.478 48.2453 190.065 48.352 191.004 48.352V49.376H184.924V48.352C185.478 48.352 185.905 48.3093 186.204 48.224C186.502 48.1387 186.705 48.0107 186.812 47.84C186.918 47.6693 186.972 47.4027 186.972 47.04V37.696C186.972 37.2693 186.897 36.9813 186.748 36.832C186.662 36.7467 186.481 36.6507 186.204 36.544C185.905 36.48 185.542 36.448 185.116 36.448C185.073 36.3413 185.041 36.2347 185.02 36.128C184.998 36.0213 184.966 35.9147 184.924 35.808C185.606 35.5307 186.278 35.264 186.94 35.008C187.601 34.7307 188.262 34.4533 188.924 34.176V37.472C189.436 36.9813 189.948 36.5333 190.46 36.128C190.972 35.7227 191.473 35.3813 191.964 35.104C193.03 34.4853 194.065 34.176 195.068 34.176C196.305 34.176 196.924 34.688 196.924 35.712ZM213.821 35.584C212.967 35.584 212.381 35.6587 212.061 35.808C211.741 35.9573 211.506 36.2133 211.357 36.576V36.672L210.781 38.016C210.013 40.0213 209.234 41.9947 208.445 43.936C207.677 45.8773 206.909 47.84 206.141 49.824H205.405C204.509 47.648 203.613 45.4933 202.717 43.36C201.842 41.2267 200.957 39.0613 200.061 36.864V36.576C199.869 36.2133 199.613 35.9573 199.293 35.808C198.994 35.6587 198.493 35.584 197.789 35.584V34.56H204.221V35.584C203.005 35.584 202.301 35.7013 202.109 35.936C202.002 36.0427 201.949 36.1707 201.949 36.32C201.949 36.4053 201.981 36.512 202.045 36.64L206.141 46.624C206.717 45.152 207.282 43.6907 207.837 42.24C208.413 40.7893 208.989 39.328 209.565 37.856C209.671 37.6427 209.757 37.44 209.821 37.248C209.906 37.0347 210.002 36.8213 210.109 36.608C210.151 36.4373 210.173 36.3413 210.173 36.32C210.173 36.2347 210.162 36.1813 210.141 36.16C210.077 35.9893 209.959 35.8507 209.789 35.744C209.469 35.616 208.893 35.552 208.061 35.552V34.56H213.821V35.584Z" fill="#7A9DF7"/>
</svg>
