<svg width="200" height="76" viewBox="0 0 200 76" fill="none" xmlns="http://www.w3.org/2000/svg">
<path d="M111.48 29.072L113.656 34.32C113.549 34.4053 113.432 34.48 113.304 34.544C113.176 34.608 113.059 34.6827 112.952 34.768C112.077 33.3173 111.213 32.2507 110.36 31.568C109.741 31.0773 109.091 30.7253 108.408 30.512C107.747 30.2987 107.053 30.192 106.328 30.192H103.256C102.936 30.192 102.605 30.2133 102.264 30.256C101.944 30.2773 101.688 30.32 101.496 30.384C100.984 30.6187 100.728 31.152 100.728 31.984V39.184H105.432C106.477 39.184 107.192 38.96 107.576 38.512C108.067 37.9573 108.312 36.944 108.312 35.472H109.24V44.4H108.312C108.312 42.736 108.067 41.6267 107.576 41.072C107.171 40.6027 106.456 40.368 105.432 40.368H100.728V48.272C100.728 49.1467 100.888 49.6907 101.208 49.904C101.549 50.1813 102.445 50.32 103.896 50.32V51.376H95.992V50.352C97.144 50.352 97.8907 50.2133 98.232 49.936C98.5307 49.68 98.68 49.136 98.68 48.304V31.984C98.68 31.3867 98.552 30.96 98.296 30.704C97.912 30.32 97.144 30.128 95.992 30.128V29.072H111.48ZM120.198 30.224C120.198 30.736 120.028 31.1627 119.686 31.504C119.345 31.8453 118.918 32.016 118.406 32.016C117.937 32.016 117.542 31.8453 117.222 31.504C116.924 31.1627 116.774 30.736 116.774 30.224C116.774 29.712 116.934 29.2853 117.254 28.944C117.574 28.6027 117.958 28.432 118.406 28.432C118.918 28.432 119.345 28.6027 119.686 28.944C120.028 29.2853 120.198 29.712 120.198 30.224ZM121.702 51.408H115.718V50.352C116.593 50.352 117.158 50.224 117.414 49.968C117.628 49.776 117.734 49.424 117.734 48.912V39.696C117.734 39.2267 117.638 38.9067 117.446 38.736C117.212 38.544 116.646 38.448 115.75 38.448L115.622 37.744L119.686 36.208V48.912C119.686 49.5093 119.782 49.8827 119.974 50.032C120.252 50.2453 120.828 50.352 121.702 50.352V51.408ZM139.205 37.584C138.415 37.584 137.733 37.6907 137.157 37.904C137.05 37.9467 136.943 38 136.837 38.064C136.751 38.128 136.655 38.192 136.549 38.256C136.378 38.3627 136.207 38.5227 136.037 38.736L135.717 39.12C135.674 39.184 135.621 39.248 135.557 39.312C135.493 39.376 135.439 39.4507 135.397 39.536C134.863 40.176 134.33 40.816 133.797 41.456C133.263 42.0747 132.73 42.704 132.197 43.344C132.922 44.24 133.647 45.1147 134.373 45.968C135.098 46.8 135.823 47.664 136.549 48.56C136.655 48.7093 136.751 48.8587 136.837 49.008C136.943 49.136 137.05 49.2533 137.157 49.36C137.455 49.6587 137.743 49.872 138.021 50C138.447 50.2347 139.034 50.352 139.781 50.352V51.376H133.093V50.352C134.202 50.352 134.821 50.2667 134.949 50.096C135.013 50.032 135.045 49.9573 135.045 49.872C135.045 49.7653 134.991 49.6267 134.885 49.456L134.245 48.816C133.69 48.1547 133.146 47.504 132.613 46.864C132.079 46.224 131.546 45.5733 131.013 44.912C130.522 45.5093 130.031 46.1067 129.541 46.704C129.05 47.28 128.559 47.8667 128.069 48.464C127.962 48.592 127.866 48.7093 127.781 48.816C127.695 48.9227 127.61 49.04 127.525 49.168C127.269 49.4667 127.141 49.6907 127.141 49.84C127.141 49.904 127.162 49.9573 127.205 50C127.333 50.2347 127.898 50.352 128.901 50.352V51.376H122.821V50.352C123.695 50.352 124.346 50.2347 124.773 50C125.37 49.68 125.946 49.1787 126.501 48.496L130.341 44.016C129.637 43.1627 128.933 42.3307 128.229 41.52C127.546 40.688 126.853 39.856 126.149 39.024C125.701 38.448 125.359 38.0853 125.125 37.936C124.783 37.7227 124.186 37.616 123.333 37.616V36.56H129.797V37.616C129.263 37.616 128.858 37.6267 128.581 37.648C128.303 37.6693 128.122 37.744 128.037 37.872C127.973 37.9787 127.962 38.096 128.005 38.224C128.047 38.3307 128.111 38.448 128.197 38.576C128.282 38.6827 128.378 38.7893 128.485 38.896C128.613 39.0027 128.719 39.0987 128.805 39.184C129.253 39.7173 129.701 40.2613 130.149 40.816C130.618 41.3493 131.077 41.8827 131.525 42.416C131.973 41.904 132.41 41.3813 132.837 40.848C133.285 40.3147 133.733 39.7813 134.181 39.248C134.287 39.0987 134.394 38.96 134.501 38.832C134.629 38.704 134.746 38.576 134.853 38.448C134.959 38.3413 135.013 38.224 135.013 38.096C135.013 37.9893 134.981 37.904 134.917 37.84C134.831 37.6907 134.309 37.616 133.349 37.616V36.56H139.205V37.584ZM153.437 47.696C153.437 48.5707 153.192 49.3493 152.701 50.032C152.594 50.1387 152.488 50.2453 152.381 50.352C152.296 50.4587 152.2 50.5653 152.093 50.672C151.133 51.504 149.832 51.92 148.189 51.92C147.058 51.92 146.077 51.7387 145.245 51.376C145.138 51.3333 145.032 51.3013 144.925 51.28C144.84 51.28 144.744 51.28 144.637 51.28H144.317C144.082 51.3867 143.858 51.472 143.645 51.536C143.432 51.6213 143.208 51.7067 142.973 51.792C142.674 50.9813 142.365 50.192 142.045 49.424C141.725 48.6347 141.416 47.8347 141.117 47.024C141.202 46.96 141.277 46.896 141.341 46.832C141.426 46.768 141.522 46.7147 141.629 46.672C142.546 47.952 143.421 48.8907 144.253 49.488C145.576 50.3413 146.877 50.768 148.157 50.768C149.16 50.768 150.002 50.4587 150.685 49.84C151.24 49.2853 151.517 48.6133 151.517 47.824C151.517 47.312 151.314 46.8533 150.909 46.448C150.824 46.384 150.717 46.3093 150.589 46.224C150.461 46.1387 150.312 46.0427 150.141 45.936C149.864 45.7653 149.501 45.5947 149.053 45.424C148.605 45.232 148.061 45.0293 147.421 44.816C146.418 44.4747 145.586 44.1653 144.925 43.888C144.264 43.5893 143.762 43.3013 143.421 43.024C142.141 42.2347 141.501 41.1893 141.501 39.888C141.501 38.6933 142.066 37.744 143.197 37.04C144.05 36.5067 145.117 36.24 146.397 36.24C147.506 36.24 148.648 36.4533 149.821 36.88C149.992 36.8373 150.173 36.7627 150.365 36.656C150.557 36.528 150.77 36.3787 151.005 36.208C151.304 36.976 151.602 37.7547 151.901 38.544C152.2 39.312 152.498 40.0907 152.797 40.88C152.69 40.9227 152.584 40.976 152.477 41.04C152.392 41.104 152.296 41.1573 152.189 41.2C151.656 40.176 150.941 39.344 150.045 38.704C148.722 37.8293 147.506 37.392 146.397 37.392C145.586 37.392 144.946 37.5307 144.477 37.808C143.773 38.192 143.421 38.8533 143.421 39.792C143.421 40.3893 143.73 40.9013 144.349 41.328C144.434 41.3707 144.52 41.4133 144.605 41.456C144.69 41.4987 144.786 41.5413 144.893 41.584C145.192 41.7547 145.565 41.936 146.013 42.128C146.461 42.32 146.962 42.5013 147.517 42.672C148.669 43.0347 149.618 43.3973 150.365 43.76C151.133 44.1013 151.72 44.4213 152.125 44.72C153 45.424 153.437 46.416 153.437 47.696ZM168.709 47.536C168.815 47.6213 168.922 47.7067 169.029 47.792C169.157 47.8773 169.274 47.9627 169.381 48.048C168.869 48.816 168.303 49.456 167.685 49.968C167.066 50.48 166.405 50.9067 165.701 51.248C164.741 51.7173 163.706 51.952 162.597 51.952C160.485 51.952 158.757 51.28 157.413 49.936C155.983 48.5067 155.269 46.576 155.269 44.144C155.269 41.7973 155.951 39.9093 157.317 38.48C158.661 37.008 160.367 36.272 162.437 36.272C164.506 36.272 166.138 36.8693 167.333 38.064C168.613 39.28 169.253 41.04 169.253 43.344C167.269 43.408 165.317 43.4827 163.397 43.568C161.477 43.632 159.514 43.696 157.509 43.76C157.509 43.8453 157.498 43.9307 157.477 44.016C157.477 44.08 157.477 44.1547 157.477 44.24C157.477 45.136 157.594 45.9467 157.829 46.672C158.085 47.3973 158.447 48.048 158.917 48.624C159.898 49.904 161.274 50.544 163.045 50.544C163.983 50.544 164.965 50.2987 165.989 49.808C166.458 49.5307 166.917 49.2107 167.365 48.848C167.834 48.464 168.282 48.0267 168.709 47.536ZM157.573 42.544C159.173 42.5013 160.751 42.448 162.309 42.384C163.866 42.32 165.445 42.2667 167.045 42.224C167.023 40.816 166.586 39.6853 165.733 38.832C164.858 37.8933 163.759 37.424 162.437 37.424C161.157 37.424 160.037 37.936 159.077 38.96C158.181 39.8987 157.679 41.0933 157.573 42.544ZM182.924 37.712C182.924 38.8213 182.433 39.376 181.452 39.376C181.046 39.376 180.598 39.1947 180.108 38.832C179.745 38.5333 179.35 38.384 178.924 38.384C178.369 38.384 177.676 38.704 176.844 39.344C176.182 39.856 175.542 40.4427 174.924 41.104V48.848C174.924 49.4453 175.03 49.84 175.244 50.032C175.478 50.2453 176.065 50.352 177.004 50.352V51.376H170.924V50.352C171.478 50.352 171.905 50.3093 172.204 50.224C172.502 50.1387 172.705 50.0107 172.812 49.84C172.918 49.6693 172.972 49.4027 172.972 49.04V39.696C172.972 39.2693 172.897 38.9813 172.748 38.832C172.662 38.7467 172.481 38.6507 172.204 38.544C171.905 38.48 171.542 38.448 171.116 38.448C171.073 38.3413 171.041 38.2347 171.02 38.128C170.998 38.0213 170.966 37.9147 170.924 37.808C171.606 37.5307 172.278 37.264 172.94 37.008C173.601 36.7307 174.262 36.4533 174.924 36.176V39.472C175.436 38.9813 175.948 38.5333 176.46 38.128C176.972 37.7227 177.473 37.3813 177.964 37.104C179.03 36.4853 180.065 36.176 181.068 36.176C182.305 36.176 182.924 36.688 182.924 37.712ZM199.821 37.584C198.967 37.584 198.381 37.6587 198.061 37.808C197.741 37.9573 197.506 38.2133 197.357 38.576V38.672L196.781 40.016C196.013 42.0213 195.234 43.9947 194.445 45.936C193.677 47.8773 192.909 49.84 192.141 51.824H191.405C190.509 49.648 189.613 47.4933 188.717 45.36C187.842 43.2267 186.957 41.0613 186.061 38.864V38.576C185.869 38.2133 185.613 37.9573 185.293 37.808C184.994 37.6587 184.493 37.584 183.789 37.584V36.56H190.221V37.584C189.005 37.584 188.301 37.7013 188.109 37.936C188.002 38.0427 187.949 38.1707 187.949 38.32C187.949 38.4053 187.981 38.512 188.045 38.64L192.141 48.624C192.717 47.152 193.282 45.6907 193.837 44.24C194.413 42.7893 194.989 41.328 195.565 39.856C195.671 39.6427 195.757 39.44 195.821 39.248C195.906 39.0347 196.002 38.8213 196.109 38.608C196.151 38.4373 196.173 38.3413 196.173 38.32C196.173 38.2347 196.162 38.1813 196.141 38.16C196.077 37.9893 195.959 37.8507 195.789 37.744C195.469 37.616 194.893 37.552 194.061 37.552V36.56H199.821V37.584Z" fill="black"/>
<rect width="82" height="76" rx="10" fill="#C07B91"/>
<path d="M38.72 21.608L41.984 29.48C41.824 29.608 41.648 29.72 41.456 29.816C41.264 29.912 41.088 30.024 40.928 30.152C39.616 27.976 38.32 26.376 37.04 25.352C36.112 24.616 35.136 24.088 34.112 23.768C33.12 23.448 32.08 23.288 30.992 23.288H26.384C25.904 23.288 25.408 23.32 24.896 23.384C24.416 23.416 24.032 23.48 23.744 23.576C22.976 23.928 22.592 24.728 22.592 25.976V36.776H29.648C31.216 36.776 32.288 36.44 32.864 35.768C33.6 34.936 33.968 33.416 33.968 31.208H35.36V44.6H33.968C33.968 42.104 33.6 40.44 32.864 39.608C32.256 38.904 31.184 38.552 29.648 38.552H22.592V50.408C22.592 51.72 22.832 52.536 23.312 52.856C23.824 53.272 25.168 53.48 27.344 53.48V55.064H15.488V53.528C17.216 53.528 18.336 53.32 18.848 52.904C19.296 52.52 19.52 51.704 19.52 50.456V25.976C19.52 25.08 19.328 24.44 18.944 24.056C18.368 23.48 17.216 23.192 15.488 23.192V21.608H38.72ZM69.0774 46.472C69.0774 49.416 68.0854 51.704 66.1014 53.336C64.2134 55.032 61.6534 55.88 58.4214 55.88C57.3334 55.88 56.1494 55.752 54.8694 55.496C53.5894 55.24 52.3894 54.872 51.2694 54.392C50.7254 54.552 50.1814 54.728 49.6374 54.92C49.1254 55.112 48.6454 55.336 48.1974 55.592C47.6214 54.056 47.0294 52.552 46.4214 51.08C45.8454 49.608 45.2694 48.104 44.6934 46.568C44.9174 46.44 45.1254 46.328 45.3174 46.232C45.5094 46.104 45.7174 45.992 45.9414 45.896C47.5094 48.424 49.0294 50.232 50.5014 51.32C50.9814 51.704 51.5414 52.056 52.1814 52.376C52.8534 52.696 53.5414 52.968 54.2454 53.192C54.9494 53.448 55.6534 53.64 56.3574 53.768C57.0614 53.896 57.7014 53.96 58.2774 53.96C59.4934 53.96 60.5814 53.8 61.5414 53.48C62.5014 53.16 63.3014 52.712 63.9414 52.136C65.2854 50.888 65.9574 49.24 65.9574 47.192C65.9574 46.424 65.7814 45.672 65.4294 44.936C65.0774 44.168 64.6134 43.544 64.0374 43.064C62.7574 42.04 60.2454 40.888 56.5014 39.608C53.5254 38.552 51.1734 37.32 49.4454 35.912C47.1414 34.152 45.9894 32.008 45.9894 29.48C45.9894 26.888 46.9174 24.808 48.7734 23.24C50.5654 21.672 52.9014 20.888 55.7814 20.888C57.1574 20.888 58.5014 21.08 59.8134 21.464C60.1654 21.592 60.5014 21.72 60.8214 21.848C61.1734 21.976 61.4934 22.104 61.7814 22.232L64.6614 21.272C65.2374 22.744 65.8134 24.2 66.3894 25.64C66.9654 27.08 67.5414 28.536 68.1174 30.008C67.7654 30.168 67.4134 30.344 67.0614 30.536C65.7174 28.232 64.1814 26.408 62.4534 25.064C60.3734 23.528 58.1334 22.76 55.7334 22.76C54.9014 22.76 54.1334 22.888 53.4294 23.144C52.7254 23.368 52.0854 23.672 51.5094 24.056C50.7094 24.6 50.0854 25.288 49.6374 26.12C49.1894 26.952 48.9654 27.928 48.9654 29.048C48.9654 30.872 49.9094 32.392 51.7974 33.608C52.7574 34.184 53.6854 34.68 54.5814 35.096C55.4774 35.48 56.6294 35.896 58.0374 36.344C59.9894 36.984 61.6374 37.64 62.9814 38.312C64.3254 38.984 65.3974 39.64 66.1974 40.28C68.1174 41.816 69.0774 43.88 69.0774 46.472Z" fill="white"/>
</svg>
