<svg width="82" height="76" viewBox="0 0 82 76" fill="none" xmlns="http://www.w3.org/2000/svg">
<rect width="82" height="76" rx="10" fill="#D9D9D9"/>
<rect width="82" height="76" rx="10" fill="white"/>
<path d="M38.72 21.608L41.984 29.48C41.824 29.608 41.648 29.72 41.456 29.816C41.264 29.912 41.088 30.024 40.928 30.152C39.616 27.976 38.32 26.376 37.04 25.352C36.112 24.616 35.136 24.088 34.112 23.768C33.12 23.448 32.08 23.288 30.992 23.288H26.384C25.904 23.288 25.408 23.32 24.896 23.384C24.416 23.416 24.032 23.48 23.744 23.576C22.976 23.928 22.592 24.728 22.592 25.976V36.776H29.648C31.216 36.776 32.288 36.44 32.864 35.768C33.6 34.936 33.968 33.416 33.968 31.208H35.36V44.6H33.968C33.968 42.104 33.6 40.44 32.864 39.608C32.256 38.904 31.184 38.552 29.648 38.552H22.592V50.408C22.592 51.72 22.832 52.536 23.312 52.856C23.824 53.272 25.168 53.48 27.344 53.48V55.064H15.488V53.528C17.216 53.528 18.336 53.32 18.848 52.904C19.296 52.52 19.52 51.704 19.52 50.456V25.976C19.52 25.08 19.328 24.44 18.944 24.056C18.368 23.48 17.216 23.192 15.488 23.192V21.608H38.72ZM69.0774 46.472C69.0774 49.416 68.0854 51.704 66.1014 53.336C64.2134 55.032 61.6534 55.88 58.4214 55.88C57.3334 55.88 56.1494 55.752 54.8694 55.496C53.5894 55.24 52.3894 54.872 51.2694 54.392C50.7254 54.552 50.1814 54.728 49.6374 54.92C49.1254 55.112 48.6454 55.336 48.1974 55.592C47.6214 54.056 47.0294 52.552 46.4214 51.08C45.8454 49.608 45.2694 48.104 44.6934 46.568C44.9174 46.44 45.1254 46.328 45.3174 46.232C45.5094 46.104 45.7174 45.992 45.9414 45.896C47.5094 48.424 49.0294 50.232 50.5014 51.32C50.9814 51.704 51.5414 52.056 52.1814 52.376C52.8534 52.696 53.5414 52.968 54.2454 53.192C54.9494 53.448 55.6534 53.64 56.3574 53.768C57.0614 53.896 57.7014 53.96 58.2774 53.96C59.4934 53.96 60.5814 53.8 61.5414 53.48C62.5014 53.16 63.3014 52.712 63.9414 52.136C65.2854 50.888 65.9574 49.24 65.9574 47.192C65.9574 46.424 65.7814 45.672 65.4294 44.936C65.0774 44.168 64.6134 43.544 64.0374 43.064C62.7574 42.04 60.2454 40.888 56.5014 39.608C53.5254 38.552 51.1734 37.32 49.4454 35.912C47.1414 34.152 45.9894 32.008 45.9894 29.48C45.9894 26.888 46.9174 24.808 48.7734 23.24C50.5654 21.672 52.9014 20.888 55.7814 20.888C57.1574 20.888 58.5014 21.08 59.8134 21.464C60.1654 21.592 60.5014 21.72 60.8214 21.848C61.1734 21.976 61.4934 22.104 61.7814 22.232L64.6614 21.272C65.2374 22.744 65.8134 24.2 66.3894 25.64C66.9654 27.08 67.5414 28.536 68.1174 30.008C67.7654 30.168 67.4134 30.344 67.0614 30.536C65.7174 28.232 64.1814 26.408 62.4534 25.064C60.3734 23.528 58.1334 22.76 55.7334 22.76C54.9014 22.76 54.1334 22.888 53.4294 23.144C52.7254 23.368 52.0854 23.672 51.5094 24.056C50.7094 24.6 50.0854 25.288 49.6374 26.12C49.1894 26.952 48.9654 27.928 48.9654 29.048C48.9654 30.872 49.9094 32.392 51.7974 33.608C52.7574 34.184 53.6854 34.68 54.5814 35.096C55.4774 35.48 56.6294 35.896 58.0374 36.344C59.9894 36.984 61.6374 37.64 62.9814 38.312C64.3254 38.984 65.3974 39.64 66.1974 40.28C68.1174 41.816 69.0774 43.88 69.0774 46.472Z" fill="black"/>
<path d="M38.72 21.608L41.984 29.48C41.824 29.608 41.648 29.72 41.456 29.816C41.264 29.912 41.088 30.024 40.928 30.152C39.616 27.976 38.32 26.376 37.04 25.352C36.112 24.616 35.136 24.088 34.112 23.768C33.12 23.448 32.08 23.288 30.992 23.288H26.384C25.904 23.288 25.408 23.32 24.896 23.384C24.416 23.416 24.032 23.48 23.744 23.576C22.976 23.928 22.592 24.728 22.592 25.976V36.776H29.648C31.216 36.776 32.288 36.44 32.864 35.768C33.6 34.936 33.968 33.416 33.968 31.208H35.36V44.6H33.968C33.968 42.104 33.6 40.44 32.864 39.608C32.256 38.904 31.184 38.552 29.648 38.552H22.592V50.408C22.592 51.72 22.832 52.536 23.312 52.856C23.824 53.272 25.168 53.48 27.344 53.48V55.064H15.488V53.528C17.216 53.528 18.336 53.32 18.848 52.904C19.296 52.52 19.52 51.704 19.52 50.456V25.976C19.52 25.08 19.328 24.44 18.944 24.056C18.368 23.48 17.216 23.192 15.488 23.192V21.608H38.72ZM69.0774 46.472C69.0774 49.416 68.0854 51.704 66.1014 53.336C64.2134 55.032 61.6534 55.88 58.4214 55.88C57.3334 55.88 56.1494 55.752 54.8694 55.496C53.5894 55.24 52.3894 54.872 51.2694 54.392C50.7254 54.552 50.1814 54.728 49.6374 54.92C49.1254 55.112 48.6454 55.336 48.1974 55.592C47.6214 54.056 47.0294 52.552 46.4214 51.08C45.8454 49.608 45.2694 48.104 44.6934 46.568C44.9174 46.44 45.1254 46.328 45.3174 46.232C45.5094 46.104 45.7174 45.992 45.9414 45.896C47.5094 48.424 49.0294 50.232 50.5014 51.32C50.9814 51.704 51.5414 52.056 52.1814 52.376C52.8534 52.696 53.5414 52.968 54.2454 53.192C54.9494 53.448 55.6534 53.64 56.3574 53.768C57.0614 53.896 57.7014 53.96 58.2774 53.96C59.4934 53.96 60.5814 53.8 61.5414 53.48C62.5014 53.16 63.3014 52.712 63.9414 52.136C65.2854 50.888 65.9574 49.24 65.9574 47.192C65.9574 46.424 65.7814 45.672 65.4294 44.936C65.0774 44.168 64.6134 43.544 64.0374 43.064C62.7574 42.04 60.2454 40.888 56.5014 39.608C53.5254 38.552 51.1734 37.32 49.4454 35.912C47.1414 34.152 45.9894 32.008 45.9894 29.48C45.9894 26.888 46.9174 24.808 48.7734 23.24C50.5654 21.672 52.9014 20.888 55.7814 20.888C57.1574 20.888 58.5014 21.08 59.8134 21.464C60.1654 21.592 60.5014 21.72 60.8214 21.848C61.1734 21.976 61.4934 22.104 61.7814 22.232L64.6614 21.272C65.2374 22.744 65.8134 24.2 66.3894 25.64C66.9654 27.08 67.5414 28.536 68.1174 30.008C67.7654 30.168 67.4134 30.344 67.0614 30.536C65.7174 28.232 64.1814 26.408 62.4534 25.064C60.3734 23.528 58.1334 22.76 55.7334 22.76C54.9014 22.76 54.1334 22.888 53.4294 23.144C52.7254 23.368 52.0854 23.672 51.5094 24.056C50.7094 24.6 50.0854 25.288 49.6374 26.12C49.1894 26.952 48.9654 27.928 48.9654 29.048C48.9654 30.872 49.9094 32.392 51.7974 33.608C52.7574 34.184 53.6854 34.68 54.5814 35.096C55.4774 35.48 56.6294 35.896 58.0374 36.344C59.9894 36.984 61.6374 37.64 62.9814 38.312C64.3254 38.984 65.3974 39.64 66.1974 40.28C68.1174 41.816 69.0774 43.88 69.0774 46.472Z" fill="#A56377"/>
</svg>
