<svg width="110" height="110" viewBox="0 0 110 110" fill="none" xmlns="http://www.w3.org/2000/svg">
<path d="M55 0C85.36 0 110 24.64 110 55C110 85.36 85.36 110 55 110C24.64 110 0 85.36 0 55C0 24.64 24.64 0 55 0ZM22.1283 73.7896C30.1996 85.838 42.3231 93.5 55.8784 93.5C69.4337 93.5 81.5573 85.838 89.6286 73.7896C80.7868 65.5446 68.9216 60.5 55.8784 60.5C42.8352 60.5 30.9702 65.5446 22.1283 73.7896ZM55 49.5C64.113 49.5 71.5 42.1127 71.5 33C71.5 23.8873 64.113 16.5 55 16.5C45.8871 16.5 38.5 23.8873 38.5 33C38.5 42.1127 45.8871 49.5 55 49.5Z" fill="white" fill-opacity="0.8"/>
</svg>
