<svg width="31" height="31" viewBox="0 0 31 31" fill="none" xmlns="http://www.w3.org/2000/svg">
<circle cx="15.5" cy="15.5" r="15.5" fill="#ECF1FC"/>
<g clip-path="url(#clip0_31_88)">
<path d="M17.493 15.5001C17.4929 15.039 17.3331 14.5923 17.0406 14.2359C16.7481 13.8795 16.3411 13.6355 15.8889 13.5456C15.4367 13.4556 14.9673 13.5253 14.5607 13.7426C14.1541 13.9599 13.8354 14.3115 13.659 14.7374C13.4825 15.1633 13.4592 15.6373 13.593 16.0785C13.7268 16.5197 14.0094 16.9009 14.3928 17.157C14.7761 17.4132 15.2363 17.5286 15.6952 17.4834C16.154 17.4383 16.583 17.2355 16.909 16.9095C17.0942 16.7307 17.2413 16.5163 17.3416 16.2793C17.442 16.0422 17.4934 15.7874 17.493 15.53L17.4925 15.4986L17.493 15.5001ZM18.5691 15.5001C18.5667 16.2068 18.3195 16.8908 17.8696 17.4358C17.4196 17.9807 16.7947 18.3529 16.1013 18.489C15.4078 18.6252 14.6886 18.5168 14.0661 18.1823C13.4435 17.8479 12.9561 17.308 12.6867 16.6547C12.4174 16.0013 12.3828 15.2748 12.5887 14.5988C12.7947 13.9228 13.2286 13.339 13.8165 12.9469C14.4045 12.5548 15.1101 12.3785 15.8134 12.448C16.5166 12.5176 17.1741 12.8287 17.6738 13.3284C17.9576 13.6037 18.1832 13.9333 18.3371 14.2976C18.491 14.6618 18.57 15.0533 18.5696 15.4488L18.5691 15.5031V15.5001ZM19.4096 12.3085V12.3095C19.4096 12.4755 19.3521 12.6364 19.2469 12.7647C19.1416 12.893 18.9951 12.9809 18.8323 13.0133C18.6695 13.0458 18.5006 13.0208 18.3541 12.9426C18.2077 12.8644 18.093 12.7378 18.0294 12.5845C17.9659 12.4311 17.9574 12.2605 18.0056 12.1017C18.0537 11.9428 18.1554 11.8056 18.2934 11.7133C18.4314 11.6211 18.5971 11.5795 18.7623 11.5958C18.9275 11.612 19.0819 11.685 19.1993 11.8023C19.3269 11.9274 19.4061 12.1018 19.4061 12.2946V12.309L19.4096 12.3085ZM15.5036 10.5947L14.9082 10.5907C14.5475 10.588 14.2737 10.588 14.0867 10.5907C13.8997 10.5933 13.6492 10.6011 13.3354 10.6141C13.0439 10.6241 12.7674 10.6529 12.4969 10.6988L12.5332 10.6938C12.3215 10.7287 12.1337 10.7785 11.9538 10.8448L11.9752 10.8378C11.7212 10.94 11.4902 11.092 11.2958 11.2849C11.1014 11.4777 10.9475 11.7075 10.8433 11.9608L10.8383 11.9742C10.7744 12.1493 10.7271 12.3299 10.6968 12.5138L10.6943 12.5322C10.6504 12.794 10.6239 13.0585 10.6151 13.3239L10.6146 13.3343C10.6017 13.6485 10.5938 13.899 10.5912 14.0856C10.5885 14.2723 10.5885 14.5462 10.5912 14.9072C10.5938 15.2682 10.5952 15.4667 10.5952 15.5026C10.5952 15.5384 10.5938 15.7369 10.5912 16.0979C10.5885 16.459 10.5885 16.7328 10.5912 16.9195C10.5938 17.1062 10.6017 17.3566 10.6146 17.6708C10.6246 17.9623 10.6535 18.2388 10.6993 18.5093L10.6943 18.4729C10.7292 18.6847 10.779 18.8725 10.8453 19.0523L10.8383 19.0309C10.9405 19.285 11.0925 19.516 11.2854 19.7104C11.4782 19.9048 11.7081 20.0586 11.9613 20.1629L11.9747 20.1678C12.1332 20.2271 12.321 20.277 12.5143 20.3093L12.5327 20.3118C12.7664 20.3527 13.0429 20.3816 13.3239 20.391L13.3344 20.3915C13.6486 20.4045 13.899 20.4123 14.0857 20.415C14.2723 20.4176 14.5462 20.4176 14.9072 20.415L15.4991 20.403L16.0945 20.407C16.4552 20.4096 16.729 20.4096 16.916 20.407C17.103 20.4043 17.3535 20.3965 17.6673 20.3836C17.9588 20.3736 18.2353 20.3447 18.5058 20.2989L18.4695 20.3039C18.6812 20.269 18.869 20.2192 19.0489 20.1529L19.0275 20.1599C19.2815 20.0577 19.5125 19.9056 19.7069 19.7128C19.9013 19.5199 20.0552 19.2901 20.1594 19.0369L20.1644 19.0234C20.2237 18.865 20.2735 18.6772 20.3059 18.4839L20.3084 18.4654C20.3492 18.2318 20.3781 17.9553 20.3876 17.6743L20.3881 17.6638C20.401 17.3496 20.4088 17.0992 20.4115 16.9125C20.4141 16.7258 20.4141 16.452 20.4115 16.091C20.4088 15.7299 20.4075 15.5315 20.4075 15.4956C20.4075 15.4597 20.4088 15.2613 20.4115 14.9002C20.4141 14.5392 20.4141 14.2653 20.4115 14.0787C20.4088 13.892 20.401 13.6416 20.3881 13.3274C20.3781 13.0359 20.3492 12.7594 20.3034 12.4889L20.3084 12.5252C20.2766 12.3277 20.2261 12.1337 20.1574 11.9458L20.1644 11.9672C20.0622 11.7132 19.9102 11.4822 19.7173 11.2878C19.5244 11.0934 19.2946 10.9395 19.0414 10.8353L19.028 10.8303C18.8529 10.7664 18.6723 10.7191 18.4884 10.6888L18.47 10.6863C18.2083 10.6424 17.944 10.6159 17.6788 10.6071L17.6683 10.6066C17.3541 10.5937 17.1037 10.5859 16.917 10.5832C16.7304 10.5805 16.4565 10.5805 16.0955 10.5832L15.5036 10.5947ZM21.4787 15.5001C21.4787 16.6885 21.4654 17.511 21.4388 17.9677C21.4624 18.4306 21.3884 18.8932 21.2217 19.3256C21.0551 19.758 20.7994 20.1506 20.4713 20.4779C20.1432 20.8052 19.75 21.0599 19.3172 21.2255C18.8844 21.3911 18.4216 21.464 17.9588 21.4393L17.9668 21.4398C17.5101 21.4664 16.6875 21.4796 15.4991 21.4796C14.3107 21.4796 13.4881 21.4664 13.0314 21.4398C12.5686 21.4633 12.106 21.3894 11.6736 21.2227C11.2412 21.056 10.8486 20.8004 10.5213 20.4723C10.194 20.1442 9.93927 19.751 9.77366 19.3182C9.60804 18.8853 9.53521 18.4225 9.55989 17.9598L9.55939 17.9677C9.53282 17.511 9.51953 16.6885 9.51953 15.5001C9.51953 14.3117 9.53282 13.4891 9.55939 13.0324C9.53584 12.5696 9.6098 12.107 9.77647 11.6746C9.94314 11.2421 10.1988 10.8495 10.5269 10.5223C10.855 10.195 11.2482 9.94025 11.681 9.77463C12.1138 9.60902 12.5766 9.53619 13.0394 9.56086L13.0314 9.56036C13.4881 9.53379 14.3107 9.52051 15.4991 9.52051C16.6875 9.52051 17.5101 9.53379 17.9668 9.56036C18.4296 9.53682 18.8922 9.61077 19.3246 9.77744C19.757 9.94411 20.1496 10.1998 20.4769 10.5279C20.8042 10.856 21.0589 11.2492 21.2245 11.682C21.3902 12.1148 21.463 12.5776 21.4383 13.0404L21.4388 13.0324C21.4654 13.4888 21.4787 14.3113 21.4787 15.5001Z" fill="#7A9DF7"/>
</g>
<defs>
<clipPath id="clip0_31_88">
<rect width="11.9571" height="11.9571" fill="white" transform="translate(9.52148 9.52148)"/>
</clipPath>
</defs>
</svg>
