<svg width="31" height="31" viewBox="0 0 31 31" fill="none" xmlns="http://www.w3.org/2000/svg">
<path d="M6.50583 3.44584C6.50523 4.84819 5.70172 6.11014 4.47418 6.63661C3.24664 7.16311 1.84022 6.84899 0.918075 5.8424C-0.00406619 4.83579 -0.257758 3.33772 0.276608 2.05459C0.81099 0.77146 2.02672 -0.0405117 3.35054 0.00156018C5.10883 0.0574436 6.50663 1.58324 6.50583 3.44584ZM6.60342 9.43888H0.0976673V31H6.60342V9.43888ZM16.8825 9.43888H10.4093V31H16.8175V19.6855C16.8175 13.3825 24.5756 12.797 24.5756 19.6855V31H31V17.3434C31 6.7179 19.5174 7.11399 16.8175 12.332L16.8825 9.43888Z" fill="#ECF1FC"/>
<path d="M6.50583 3.44584C6.50523 4.84819 5.70172 6.11014 4.47418 6.63661C3.24664 7.16311 1.84022 6.84899 0.918075 5.8424C-0.00406619 4.83579 -0.257758 3.33772 0.276608 2.05459C0.81099 0.77146 2.02672 -0.0405117 3.35054 0.00156018C5.10883 0.0574436 6.50663 1.58324 6.50583 3.44584ZM6.60342 9.43888H0.0976673V31H6.60342V9.43888ZM16.8825 9.43888H10.4093V31H16.8175V19.6855C16.8175 13.3825 24.5756 12.797 24.5756 19.6855V31H31V17.3434C31 6.7179 19.5174 7.11399 16.8175 12.332L16.8825 9.43888Z" fill="#ECF1FC"/>
</svg>
