<svg width="51" height="50" viewBox="0 0 51 50" fill="none" xmlns="http://www.w3.org/2000/svg">
<g clip-path="url(#clip0_31_80)">
<path d="M13.6813 7.8125C11.8278 7.8125 10.0503 8.55329 8.73965 9.87191C7.42904 11.1905 6.69275 12.9789 6.69275 14.8438V35.1562C6.69275 37.0211 7.42904 38.8095 8.73965 40.1281C10.0503 41.4467 11.8278 42.1875 13.6813 42.1875H43.1886C45.0421 42.1875 46.8197 41.4467 48.1303 40.1281C49.4409 38.8095 50.1772 37.0211 50.1772 35.1562V14.8438C50.1772 12.9789 49.4409 11.1905 48.1303 9.87191C46.8197 8.55329 45.0421 7.8125 43.1886 7.8125H13.6813ZM47.0712 16.2547L28.435 26.35L9.79878 16.2547V14.8438C9.79878 13.8077 10.2078 12.8142 10.936 12.0816C11.6641 11.3491 12.6516 10.9375 13.6813 10.9375H43.1886C44.2183 10.9375 45.2059 11.3491 45.934 12.0816C46.6621 12.8142 47.0712 13.8077 47.0712 14.8438V16.2547ZM9.79878 19.8031L27.6988 29.5016C27.9251 29.6241 28.178 29.6882 28.435 29.6882C28.6919 29.6882 28.9449 29.6241 29.1711 29.5016L47.0712 19.8031V35.1562C47.0712 36.1923 46.6621 37.1858 45.934 37.9184C45.2059 38.6509 44.2183 39.0625 43.1886 39.0625H13.6813C12.6516 39.0625 11.6641 38.6509 10.936 37.9184C10.2078 37.1858 9.79878 36.1923 9.79878 35.1562V19.8031Z" fill="#ECF1FC"/>
</g>
<defs>
<clipPath id="clip0_31_80">
<rect width="50.0106" height="50" fill="white"/>
</clipPath>
</defs>
</svg>
