<svg width="51" height="51" viewBox="0 0 51 51" fill="none" xmlns="http://www.w3.org/2000/svg">
<path fill-rule="evenodd" clip-rule="evenodd" d="M12.1827 4.34127C14.7688 1.77002 19.0273 2.2269 21.1927 5.12115L23.8744 8.69965C25.6382 11.0541 25.4809 14.3436 23.3878 16.424L22.8821 16.9298C22.8247 17.1421 22.8189 17.365 22.8651 17.58C22.9989 18.447 23.7236 20.283 26.7581 23.3005C29.7926 26.318 31.6413 27.0405 32.5211 27.1765C32.7427 27.2211 32.9717 27.2146 33.1904 27.1574L34.0574 26.2946C35.9189 24.4459 38.7749 24.0995 41.0784 25.3512L45.1372 27.5612C48.6158 29.4482 49.4934 34.1742 46.6459 37.0068L43.6263 40.0073C42.6743 40.9529 41.3951 41.7413 39.8353 41.8879C35.9891 42.247 27.0279 41.788 17.6078 32.4232C8.81668 23.6809 7.12943 16.0564 6.91481 12.2994C6.80856 10.3996 7.70531 8.79315 8.84856 7.6584L12.1827 4.34127ZM18.6427 7.03152C17.5653 5.5929 15.5593 5.47815 14.4288 6.60227L11.0926 9.91727C10.3913 10.6143 10.0556 11.3835 10.0981 12.1188C10.2681 15.1044 11.6281 21.983 19.8561 30.1643C28.4878 38.745 36.4587 39.0022 39.5399 38.7132C40.1689 38.6558 40.7937 38.3285 41.3781 37.7484L44.3956 34.7458C45.6238 33.526 45.3539 31.3033 43.6157 30.3598L39.5569 28.1519C38.4349 27.5442 37.1217 27.7439 36.3057 28.5557L35.3388 29.5183L34.2126 28.3878C35.3388 29.5183 35.3367 29.5204 35.3346 29.5204L35.3324 29.5247L35.3261 29.531L35.3112 29.5438L35.2793 29.5735C35.1896 29.6568 35.0929 29.7322 34.9903 29.7988C34.8203 29.9114 34.5951 30.0368 34.3124 30.1409C33.7387 30.3555 32.9779 30.4703 32.0387 30.3258C30.1963 30.0431 27.7547 28.7873 24.5098 25.5615C21.2671 22.3358 20.0006 19.909 19.7158 18.0688C19.5692 17.1295 19.6861 16.3688 19.9028 15.795C20.0221 15.4722 20.1929 15.1708 20.4086 14.9025L20.4766 14.8281L20.5063 14.7963L20.5191 14.7835L20.5254 14.7771L20.5297 14.7729L21.1417 14.1651C22.0512 13.2578 22.1787 11.7554 21.3223 10.61L18.6427 7.03152Z" fill="#ECF1FC"/>
</svg>
