<svg width="33" height="31" viewBox="0 0 33 31" fill="none" xmlns="http://www.w3.org/2000/svg">
<g clip-path="url(#clip0_28_15)">
<path d="M16.5495 0.338745C11.3896 0.338745 7.16089 4.32623 7.16089 9.19299C7.16089 11.0787 7.79772 12.8313 8.8754 14.2717L15.4037 24.9456C16.3179 26.0753 16.9257 25.8607 17.6859 24.8859L24.8867 13.2966C25.0318 13.0477 25.1461 12.7826 25.2455 12.5119C25.7023 11.4587 25.9372 10.3313 25.9372 9.19299C25.9375 4.32623 21.7101 0.338745 16.5495 0.338745ZM16.5495 4.4874C19.3285 4.4874 21.5381 6.57247 21.5381 9.19299C21.5381 11.8135 19.3285 13.898 16.5495 13.898C13.7709 13.898 11.5603 11.8141 11.5603 9.19329C11.5603 6.57247 13.7709 4.4877 16.5492 4.4877" fill="white"/>
<path d="M22.5177 14.936L22.5025 14.9736L22.5158 14.9393L22.5177 14.936ZM11.5019 20.9498C7.04414 21.5455 3.92627 22.9707 3.92627 25.0686C3.92627 27.8945 9.13576 30.1852 16.5492 30.1852C23.9627 30.1852 29.1722 27.8945 29.1722 25.0686C29.1722 22.9707 26.0546 21.5455 21.5971 20.9498L20.9796 21.9443C24.3392 22.3851 26.6476 23.3115 26.6476 24.3866C26.6476 25.8939 22.1264 27.1155 16.5492 27.1155C10.9721 27.1155 6.45086 25.8939 6.45086 24.3866C6.45054 23.3151 8.74382 22.3896 12.1138 21.947L11.5019 20.9498Z" fill="white"/>
</g>
<defs>
<clipPath id="clip0_28_15">
<rect width="31.5574" height="29.8464" fill="white" transform="translate(0.770508 0.338745)"/>
</clipPath>
</defs>
</svg>
